<svg xmlns:dc="http://purl.org/dc/elements/1.1/" 
xmlns:cc="http://creativecommons.org/ns#" 
xmlns:rdf="http://www.w3.org/1999/02/22-rdf-syntax-ns#" 
xmlns:svg="http://www.w3.org/2000/svg" xmlns="http://www.w3.org/2000/svg" 
xmlns:xlink="http://www.w3.org/1999/xlink" id="svg752877" width="177" height="26" viewBox="0 0 177 26" version="1.1">
  <metadata id="metadata752883">
    <rdf:rdf>
      <cc:work rdf:about="">
        <dc:format>image/svg+xml</dc:format>
        <dc:type 
rdf:resource="http://purl.org/dc/dcmitype/StillImage"></dc:type>
      </cc:work>
    </rdf:rdf>
  </metadata>
  <defs id="defs752881"></defs>
  <linearGradient spreadMethod="pad" y2="30%" x2="-10%" y1="120%" x1="30%" 
id="3d_gradient2-logo-982afea3-0841-4556-971d-e18318c765c0">
    <stop id="stop752858" stop-opacity="1" stop-color="#ffffff" 
offset="0%"></stop>
    <stop id="stop752860" stop-opacity="1" stop-color="#000000" 
offset="100%"></stop>
  </linearGradient>
  <linearGradient gradientTransform="rotate(-30)" spreadMethod="pad" 
y2="30%" x2="-10%" y1="120%" x1="30%" 
id="3d_gradient3-logo-982afea3-0841-4556-971d-e18318c765c0">
    <stop id="stop752863" stop-opacity="1" stop-color="#ffffff" 
offset="0%"></stop>
    <stop id="stop752865" stop-opacity="1" stop-color="#cccccc" 
offset="50%"></stop>
    <stop id="stop752867" stop-opacity="1" stop-color="#000000" 
offset="100%"></stop>
  </linearGradient>
  <g id="logo-group">
    <image xlink:href="" id="container" x="272" y="144" width="480" 
height="480" style="display: none;" transform="translate(0 0)"></image>
    <g id="logo-center" transform="translate(5.684341886080802e-14 0)">
      <image xlink:href="" id="icon_container" style="display: none;" 
x="0" y="0"></image>
      <g id="slogan" 
style="font-style:normal;font-weight:400;font-size:32px;line-height:1;font-family:Karla;font-variant-ligatures:none;text-align:center;text-anchor:middle" 
transform="translate(0 0)"></g>
      <g id="title" 
style="font-style:normal;font-weight:normal;font-size:72px;line-height:1;font-family:'Brandmark 
Sans 11 Color 
Shadow';font-variant-ligatures:normal;text-align:center;text-anchor:middle" 
transform="translate(0 0)">
        <g id="path752886" aria-label="^V" transform="translate(0 
315.685061) translate(286.81849 -18.026916999999983) scale(2) 
translate(-397.19095 72.096904)"> <polygon class="c1" 
points="90.96387,119.73952 100.55395,102.4775 121.92912,64.00006 
139.99052,64.00008 109.58992,118.73792 99.99984,136.00002 " 
transform="translate(337.18181 -136.096894)" stroke-width="0" 
stroke-linejoin="miter" stroke-miterlimit="2" fill="#ae87ff" 
stroke="#ae87ff"></polygon> <linearGradient 
id="1ae003dc-467b-4189-a549-82d7bf7095a4" gradientUnits="userSpaceOnUse" 
x1="251.54768" y1="29.82594" x2="215.3084" y2="-0.79084" 
gradientTransform="matrix(1 0 0 -1 -124.22015 116.00163)"> <stop 
offset="0" style="stop-color:#000000;stop-opacity:0"></stop> <stop 
offset="0.23462" style="stop-color:#000000;stop-opacity:0.29264"></stop> 
<stop offset="0.52244" 
style="stop-color:#000000;stop-opacity:0.65165"></stop> <stop 
offset="0.72155" style="stop-color:#000000;stop-opacity:0.9"></stop> 
</linearGradient> <polygon class="highlight" 
fill="url(#1ae003dc-467b-4189-a549-82d7bf7095a4)" 
points="90.96387,119.73952 100.55395,102.4775 121.92912,64.00006 
139.99052,64.00008 109.58992,118.73792 99.99984,136.00002 " 
transform="translate(337.18181 -136.096894)" stroke-width="0" 
stroke-linejoin="miter" stroke-miterlimit="2" opacity="0.54"></polygon> 
<polygon class="c2" points="60.00914,63.99999 79.18931,64.00001 
100.55395,102.4775 109.58992,118.73792 99.99984,136.00002 
90.96387,119.73952 " transform="translate(337.18181 -136.096894)" 
stroke-width="0" stroke-linejoin="miter" stroke-miterlimit="2" 
fill="#b86bd9" stroke="#b86bd9"></polygon> </g>
        <g id="path752888" aria-label="a" transform="translate(0 
315.685061) translate(441.25805 17.63391700000001) scale(2) 
translate(-474.41073 54.266487)"> <path class="c1" 
d="M127.3184,109.15281c0-15.06299-12.25488-27.31799-27.31787-27.31799 
c-15.06396,0-27.31885,12.255-27.31885,27.31799c0,15.06409,12.25488,27.31904,27.31885,27.31904 
c4.95215,0,9.59619-1.33118,13.60547-3.64453v3.15417h13.7124v-26.57337h-0.00635 
C127.31303,109.32267,127.3184,109.23844,127.3184,109.15281z 
M100.00053,122.75932c-7.50195,0-13.60645-6.10437-13.60645-13.60651 
s6.10449-13.60541,13.60645-13.60541s13.60547,6.10327,13.60547,13.60541S107.50248,122.75932,100.00053,122.75932z" 
transform="translate(401.72905 -136.101307)" stroke-width="0" 
stroke-linejoin="miter" stroke-miterlimit="2" fill="#ae87ff" 
stroke="#ae87ff"></path> </g>
        <g id="path752890" aria-label="p" transform="translate(0 
315.685061) translate(574.75263 17.63391700000001) scale(2) 
translate(-541.15802 54.266487)"> <path class="c1" 
d="M100.0005,81.91477c-15.19873,0-27.56348,12.36469-27.56348,27.5636 
c0,0.09888,0.00635,0.19623,0.00732,0.29486h-0.00732v44.57343h13.83545v-20.98291 
c4.04541,2.33405,8.73145,3.67719,13.72803,3.67719c15.19775,0,27.5625-12.36469,27.5625-27.56257 
C127.563,94.27946,115.19825,81.91477,100.0005,81.91477z 
M100.0005,123.2056c-7.56934,0-13.72827-6.1579-13.72827-13.72723 
c0-7.56927,6.15894-13.72827,13.72827-13.72827s13.72729,6.159,13.72729,13.72827 
C113.72779,117.04771,107.56983,123.2056,100.0005,123.2056z" 
transform="translate(468.721 -136.181257)" stroke-width="0" 
stroke-linejoin="miter" stroke-miterlimit="2" fill="#ae87ff" 
stroke="#ae87ff"></path> </g>
        <g id="path752892" aria-label="i" transform="translate(0 
315.685061) translate(703.2649499999999 -26.166891000000007) scale(2) 
translate(-605.41418 76.166891)"> <path class="c1" 
d="M93.22384,83.1981h13.55225v52.78339H93.22384V83.1981z" 
transform="translate(513.75381 -137.707701)" stroke-width="0" 
stroke-linejoin="miter" stroke-miterlimit="2" fill="#ae87ff" 
stroke="#ae87ff"></path> <path class="c2" 
d="M100.00021,78.22019c4.60596,0,8.33936-3.73383,8.33936-8.33972s-3.7334-8.33966-8.33936-8.33966 
s-8.33984,3.73376-8.33984,8.33966S95.39424,78.22019,100.00021,78.22019z" 
transform="translate(513.75381 -137.707701)" stroke-width="0" 
stroke-linejoin="miter" stroke-miterlimit="2" fill="#b86bd9" 
stroke="#b86bd9"></path> </g>
          </g>
      <image xlink:href="" id="icon" style="display: none;" x="0" 
y="0"></image>
    </g>
  </g>
</svg>
